<svg xmlns="http://www.w3.org/2000/svg" xmlns:svg="http://www.w3.org/2000/svg" id="svg3053" width="315.244" height="61.61" version="1.1"><defs id="defs3055"><clipPath id="clipPath3011" clipPathUnits="userSpaceOnUse"><path id="path3013" d="M -2.2e-8,1.2207e-4 720,1.2207e-4 720,540.00012 -2.2e-8,540.00012 l 0,-539.99999793 z" clip-rule="evenodd"/></clipPath><clipPath id="clipPath3021" clipPathUnits="userSpaceOnUse"><path id="path3023" d="m 0,0 843.56,0 0,87.998 L 0,87.998 0,0 z"/></clipPath><clipPath id="clipPath3945" clipPathUnits="userSpaceOnUse"><path id="path3947" d="m 0,1.2207e-4 720,0 0,539.99999793 -720,0 L 0,1.2207e-4 z" clip-rule="evenodd"/></clipPath></defs><metadata id="metadata3058"/><g id="layer1" transform="translate(-171.47873,-579.25702)"><rect style="fill:#01c1d6;fill-opacity:1;stroke:none" id="rect3161" width="315.244" height="61.61" x="171.479" y="579.257"/><path style="fill:#fff;fill-opacity:1;fill-rule:nonzero;stroke:none" id="path4091" d="m 459.18327,624.82273 c 5.52773,0 8.08776,-2.42365 8.08776,-6.53334 0,-3.58278 0,-3.58278 0,-3.58278 0,-1.15907 -0.30748,-1.68612 -1.12628,-2.42373 -3.6863,-3.16134 -3.6863,-3.16134 -3.6863,-3.16134 3.6863,-3.16136 3.6863,-3.16136 3.6863,-3.16136 0.8188,-0.73761 1.12628,-1.26433 1.12628,-2.42373 0,-3.16098 0,-3.16098 0,-3.16098 0,-4.10985 -2.56003,-6.53358 -8.08776,-6.53358 -35.0078,0 -35.0078,0 -35.0078,0 0,30.98084 0,30.98084 0,30.98084 l 35.0078,0 z"/><path style="fill:#01c1d6;fill-opacity:1;fill-rule:nonzero;stroke:none" id="path4095" d="m 461.53601,619.55371 c -31.62898,0 -31.62898,0 -31.62898,0 0,-7.69228 0,-7.69228 0,-7.69228 31.62898,0 31.62898,0 31.62898,0 l 0,7.69228 z"/><path style="fill:#01c1d6;fill-opacity:1;fill-rule:nonzero;stroke:none" id="path4093" d="m 429.90703,599.11078 c 31.62898,0 31.62898,0 31.62898,0 0,7.48175 0,7.48175 0,7.48175 -31.62898,0 -31.62898,0 -31.62898,0 l 0,-7.48175 z"/><path style="fill:#fff;fill-opacity:1;fill-rule:nonzero;stroke:none" id="path4085" d="m 397.96712,624.82273 c 5.63137,0 8.19141,-2.42365 8.19141,-6.53334 0,-3.58278 0,-3.58278 0,-3.58278 0,-1.15907 -0.30749,-1.68612 -1.12629,-2.42373 -3.6863,-3.16134 -3.6863,-3.16134 -3.6863,-3.16134 3.6863,-3.16136 3.6863,-3.16136 3.6863,-3.16136 0.8188,-0.73761 1.12629,-1.26433 1.12629,-2.42373 0,-3.16098 0,-3.16098 0,-3.16098 0,-4.10985 -2.56004,-6.53358 -8.19141,-6.53358 -34.90416,0 -34.90416,0 -34.90416,0 0,30.98084 0,30.98084 0,30.98084 l 34.90416,0 z"/><path style="fill:#01c1d6;fill-opacity:1;fill-rule:nonzero;stroke:none" id="path4089" d="m 400.42697,619.55371 c -31.63245,0 -31.63245,0 -31.63245,0 0,-7.69228 0,-7.69228 0,-7.69228 31.63245,0 31.63245,0 31.63245,0 l 0,7.69228 z"/><path style="fill:#01c1d6;fill-opacity:1;fill-rule:nonzero;stroke:none" id="path4087" d="m 368.79452,599.11078 c 31.63245,0 31.63245,0 31.63245,0 0,7.48175 0,7.48175 0,7.48175 -31.63245,0 -31.63245,0 -31.63245,0 l 0,-7.48175 z"/><path style="fill:#fff;fill-opacity:1;fill-rule:nonzero;stroke:none" id="path4083" d="m 337.77705,593.84189 c 0,25.50128 0,25.50128 0,25.50128 -29.89121,0 -29.89121,0 -29.89121,0 0,-25.50128 0,-25.50128 0,-25.50128 -5.73156,0 -5.73156,0 -5.73156,0 0,23.92044 0,23.92044 0,23.92044 0,4.42599 2.66023,7.0604 7.78028,7.0604 25.79723,0 25.79723,0 25.79723,0 5.11661,0 7.77682,-2.63441 7.77682,-7.0604 0,-23.92044 0,-23.92044 0,-23.92044 l -5.73156,0 z"/><path style="fill:#fff;fill-opacity:1;fill-rule:nonzero;stroke:none" id="path4081" d="m 246.56951,606.48725 c 0,-12.64536 0,-12.64536 0,-12.64536 -5.62793,0 -5.62793,0 -5.62793,0 0,30.98084 0,30.98084 0,30.98084 5.62793,0 5.62793,0 5.62793,0 0,-12.85603 0,-12.85603 0,-12.85603 30.40252,0 30.40252,0 30.40252,0 0,12.85603 0,12.85603 0,12.85603 5.63136,0 5.63136,0 5.63136,0 0,-30.98084 0,-30.98084 0,-30.98084 -5.63136,0 -5.63136,0 -5.63136,0 0,12.64536 0,12.64536 0,12.64536 l -30.40252,0 z"/><path style="fill:#fff;fill-opacity:1;fill-rule:nonzero;stroke:none" id="path3031" d="m 224.35839,599.32168 c 0,-5.47979 0,-5.47979 0,-5.47979 -33.37262,0 -33.37262,0 -33.37262,0 -5.11831,0 -7.67744,2.63462 -7.67744,7.06029 0,16.86015 0,16.86015 0,16.86015 0,4.42599 2.55913,7.0604 7.67744,7.0604 33.37262,0 33.37262,0 33.37262,0 0,-5.47956 0,-5.47956 0,-5.47956 -35.3177,0 -35.3177,0 -35.3177,0 0,-20.02149 0,-20.02149 0,-20.02149 l 35.3177,0 z"/><path d="m 480.66647,597.21405 c -1.02259,1.05348 -2.04521,1.4753 -3.48237,1.4753 -1.22986,0 -2.45285,-0.42182 -3.27507,-1.4753 -1.02261,-0.84292 -1.4303,-2.10769 -1.4303,-3.37241 0,-1.4753 0.40769,-2.52952 1.4303,-3.58299 0.82222,-0.84293 2.04521,-1.4753 3.27507,-1.4753 1.43716,0 2.45978,0.63237 3.48237,1.4753 0.81534,1.05347 1.43026,2.10769 1.43026,3.58299 0,1.26472 -0.61492,2.52949 -1.43026,3.37241 z m -6.34979,-6.32303 c -0.81534,0.63235 -1.22299,1.68583 -1.22299,2.95062 0,1.05347 0.40765,2.10767 1.22299,2.95059 0.82222,0.8429 1.84481,1.26473 2.86742,1.26473 1.22987,0 2.2525,-0.42183 3.07472,-1.26473 0.8153,-0.84292 1.02261,-1.89712 1.02261,-2.95059 0,-1.26479 -0.20745,-2.31827 -1.02261,-2.95062 -0.82222,-0.84294 -1.84485,-1.26477 -3.07472,-1.26477 -1.02261,0 -2.0452,0.42183 -2.86742,1.26477 z m 2.86742,0.21041 c 0.61495,0 1.0226,0 1.43716,0.21041 0.61497,0.21121 0.81534,0.6324 0.81534,1.26473 0,0.63239 -0.20049,0.84296 -0.61494,1.05421 -0.2005,0.21042 -0.40769,0.21042 -0.61496,0.42111 0.41456,0 0.61496,0.21119 0.82221,0.42184 0.20748,0.21041 0.20748,0.63235 0.20748,0.84292 0,0.42183 0,0.42183 0,0.42183 0,0.21039 0.20049,0.21039 0.20049,0.42108 0,0.21121 0,0.21121 0,0.21121 0,0.21041 0,0.21041 0,0.21041 -0.81534,0 -0.81534,0 -0.81534,0 0,-0.21041 0,-0.21041 0,-0.21041 0,0 0,0 0,0 -0.20745,-0.21121 -0.20745,-0.21121 -0.20745,-0.21121 0,-0.42108 0,-0.42108 0,-0.42108 0,-0.6324 0,-1.05422 -0.40765,-1.26475 -0.20747,0 -0.61496,-0.21041 -1.02261,-0.21041 -0.82222,0 -0.82222,0 -0.82222,0 0,2.31822 0,2.31822 0,2.31822 -0.81534,0 -0.81534,0 -0.81534,0 0,-5.48011 0,-5.48011 0,-5.48011 l 1.83795,0 z m 1.0226,0.84297 c -0.2005,-0.21042 -0.61495,-0.21042 -1.22299,-0.21042 -0.82222,0 -0.82222,0 -0.82222,0 0,1.89712 0,1.89712 0,1.89712 1.02261,0 1.02261,0 1.02261,0 0.20746,0 0.61495,0 0.82222,0 0.40765,-0.21121 0.40765,-0.42182 0.40765,-0.84292 0,-0.4218 0,-0.63237 -0.20747,-0.84362 z" style="fill:#fff;fill-opacity:1;fill-rule:nonzero;stroke:none" id="path3033"/></g></svg>