<svg xmlns="http://www.w3.org/2000/svg" xmlns:xlink="http://www.w3.org/1999/xlink" version="1.1" viewBox="0 0 562 64"><title>Eastman Chemical Company logo</title><metadata/><g><g fill="#ed1b2f" fill-rule="nonzero"><path d="m962.68,387.89,12.739,0,4.0962,13.572,0.0662,0,0-13.572,7.305,0,0,19.256-12.515,0-4.3212-13.96-0.0638,0,0,13.96-7.3062,0,0-19.256z" transform="translate(-617.69697,-363.47037) matrix(3.1047069,0,0,3.1047069,-1885.284,-838.69735)"/><path d="m942.37,407.13,3.0925-7.295,0-7.3525,3.7162,0,0,7.3525,3.35,7.295,8.805,0-7.91-19.244-11.721,0-7.78,19.244,8.4475,0z" transform="translate(-617.69697,-363.47037) matrix(3.1047069,0,0,3.1047069,-1885.284,-838.69735)"/><path d="m900.76,387.89,12.579,0,2.8925,10.538,0.0638,0,2.8588-10.538,12.546,0,0,19.256-7.6875,0,0-15.119-0.1275,0-4.35,15.119-7.085,0-4.3362-15.119-0.015,0,0.015,15.119-7.3538,0,0-19.256z" transform="translate(-617.69697,-363.47037) matrix(3.1047069,0,0,3.1047069,-1885.284,-838.69735)"/><path d="m899.2,393.57-7.3175,0,0,13.574-8.5138,0,0-13.574-7.3188,0,0-5.6825,23.15,0,0,5.6825z" transform="translate(-617.69697,-363.47037) matrix(3.1047069,0,0,3.1047069,-1885.284,-838.69735)"/><path d="m874.43,393.16c-1.905-0.57875-4.1612-0.965-6.575-0.965-1.335,0-3.6538,0.0275-3.6538,1.2688,0,2.51,11.659,0.13875,11.659,7.5575,0,5.16-5.8775,6.4562-10.8,6.4562-3.2725,0-5.9725-0.27625-9.1488-0.91125v-4.9925c2.2862,0.8275,5.0825,1.27,7.6238,1.27,2.0012,0,3.8112-0.36,3.8112-1.3238,0-2.595-11.658-0.24875-11.658-7.725,0-5.2962,6.3525-6.235,11.404-6.235,2.3825,0,5.0188,0.24875,7.3375,0.6625v4.9375z" transform="translate(-617.69697,-363.47037) matrix(3.1047069,0,0,3.1047069,-1885.284,-838.69735)"/><path d="m806.51,387.89,19.218,0,0,4.635-10.895,0,0,2.73,10.42,0,0,4.635-10.42,0,0,2.62,11.119,0,0,4.6362-19.441,0,0-19.256z" transform="translate(-617.69697,-363.47037) matrix(3.1047069,0,0,3.1047069,-1885.284,-838.69735)"/><path d="m835.86,407.17,3.095-7.295,0-7.3538,3.7138,0,0,7.3538,3.35,7.295,8.8062,0-7.9088-19.245-11.722,0-7.7825,19.245,8.4488,0z" transform="translate(-617.69697,-363.47037) matrix(3.1047069,0,0,3.1047069,-1885.284,-838.69735)"/></g></g></svg>