<svg xmlns="http://www.w3.org/2000/svg" xmlns:xlink="http://www.w3.org/1999/xlink" id="Layer_1" x="0" y="0" enable-background="new 0 0 110.916 46.33" version="1.0" viewBox="0 0 110.916 46.33" xml:space="preserve"><metadata><sfw xmlns="http://ns.adobe.com/SaveForWeb/1.0/"><slices/><sliceSourceBounds width="110.916" height="46.33" x="400.064" y="63.221" bottomLeftOrigin="true"/></sfw></metadata><switch><g><g><path fill="#8DC63F" d="M109.5786133,16.9289017c0-1.3539963-1.0960083-2.4519958-2.4500122-2.4519958H78.8406067 c-5.15802,0-9.3510132,3.9749985-9.3510132,9.1340027c0,5.1589966,4.1929932,9.1329956,9.3510132,9.1329956h22.7200012 c2.2109985,0,4.0079956,2.0210037,4.0079956,4.2300034c0,2.2109985-1.7969971,4.2319946-4.0079956,4.2319946H73.2745972 c-1.3519897,0-2.4500122,1.0979996-2.4500122,2.4490051c0,1.3549957,1.0980225,2.4499969,2.4500122,2.4499969h28.2860107 c5.1579895,0,9.3549805-3.9729996,9.3549805-9.1309967c0-5.1590042-4.196991-9.1310043-9.3549805-9.1310043H78.8406067 c-2.2070007,0-4.006012-2.022995-4.006012-4.2319946c0-2.2100067,1.7990112-4.2300034,4.006012-4.2300034h28.2879944 C108.482605,19.3809052,109.5786133,18.2829056,109.5786133,16.9289017"/><path fill="#8DC63F" d="M59.6890259,3.5639954C59.6890259,1.5970001,58.0940247,0,56.125,0 c-1.9689941,0-3.5639954,1.5970001-3.5639954,3.5639954c0,1.9700012,1.5950012,3.564003,3.5639954,3.564003 C58.0940247,7.1279984,59.6890259,5.5339966,59.6890259,3.5639954"/><path fill="#A3CF62" d="M44.7662048,7.1279984c-1.9690247,0-3.5640259-1.5949936-3.5640259-3.5639954 C41.202179,1.5970001,42.7971802,0,44.7662048,0c1.9689941,0,3.5639954,1.5970001,3.5639954,3.564003 C48.3302002,5.5330048,46.735199,7.1279984,44.7662048,7.1279984"/><path fill="#B9D989" d="M33.4058228,7.1279984c-1.9700012,0-3.5640259-1.5949936-3.5640259-3.5639954 C29.8417969,1.5970001,31.4358215,0,33.4058228,0c1.9679871,0,3.5639954,1.5970001,3.5639954,3.564003 C36.9698181,5.5330048,35.3738098,7.1279984,33.4058228,7.1279984"/><path fill="#CFE5AE" d="M22.0469055,7.1279984c-1.9680176,0-3.5640259-1.5949936-3.5640259-3.5639954 C18.4828796,1.5970001,20.0788879,0,22.0469055,0c1.9689941,0,3.5639954,1.5970001,3.5639954,3.564003 C25.6109009,5.5330048,24.0158997,7.1279984,22.0469055,7.1279984"/><path fill="#E5F1D4" d="M10.6899109,7.1279984c-1.9700012,0-3.5660095-1.5949936-3.5660095-3.5639954 C7.1239014,1.5970001,8.7199097,0,10.6899109,0c1.96698,0,3.5619812,1.5970001,3.5619812,3.564003 C14.2518921,5.5330048,12.6568909,7.1279984,10.6899109,7.1279984"/><path fill="#8DC63F" d="M40.3120117,14.4786987c-0.0770264,0-0.1500244,0.0160065-0.2230225,0.0220032v-0.0220032H16.0329895 C6.4760132,14.4786987,0,20.7347031,0,30.2917023v13.3649979c0,1.473999,1.1940002,2.6710014,2.6700134,2.6710014 c1.4779968,0,2.6729736-1.1970024,2.6729736-2.6710014V30.2917023c0-6.6259995,4.0079956-10.913002,10.6900024-10.913002 h24.0559998v-0.0219955c0.072998,0.0069962,0.1459961,0.0219955,0.2230225,0.0219955 c1.3519897,0,2.4499817-1.0979996,2.4499817-2.4499969S41.6640015,14.4786987,40.3120117,14.4786987"/><path fill="#8DC63F" d="M8.01651,30.2919998c0,1.3540039,1.0979919,2.4520035,2.4499817,2.4520035h24.4989929 c1.3560181,0,2.4500122-1.0979996,2.4500122-2.4520035c0-1.3529968-1.0939941-2.4509964-2.4500122-2.4509964H10.4664917 C9.114502,27.8410034,8.01651,28.939003,8.01651,30.2919998"/><path fill="#8DC63F" d="M53.4520264,16.9289017v26.7260056c0,1.4759979,1.196991,2.6749954,2.6729736,2.6749954 c1.4760132,0,2.6740112-1.1989975,2.6740112-2.6749954V16.9289017c0-1.4759979-1.197998-2.6709976-2.6740112-2.6709976 C54.6490173,14.2579041,53.4520264,15.4529037,53.4520264,16.9289017"/></g></g></switch></svg>